<svg width="413.882" height="51.306" viewBox="0 0 413.882 51.306" xmlns="http://www.w3.org/2000/svg"><g id="svgGroup" stroke-linecap="round" fill-rule="evenodd" font-size="9pt" stroke="#fffefe" stroke-width="0.25mm" fill="#ffffff" style="stroke:#fffefe;stroke-width:0.25mm;fill:#ffffff"><path d="M 179.272 50.041 L 172.983 50.041 L 172.983 1.027 L 179.272 1.027 L 203.848 39.548 L 203.848 1.027 L 210.137 1.027 L 210.137 50.041 L 203.848 50.041 L 179.272 11.486 L 179.272 50.041 Z M 327.305 50.041 L 321.016 50.041 L 321.016 1.027 L 327.305 1.027 L 327.305 23.244 L 351.812 23.244 L 351.812 1.027 L 358.135 1.027 L 358.135 50.041 L 351.812 50.041 L 351.812 27.858 L 327.305 27.858 L 327.305 50.041 Z M 121.748 31.857 L 121.748 1.027 L 128.037 1.027 L 128.037 33.224 A 11.549 11.549 0 0 0 128.518 36.606 A 10.129 10.129 0 0 0 129.438 38.727 A 11.071 11.071 0 0 0 131.624 41.456 A 10.054 10.054 0 0 0 133.044 42.521 A 19.228 19.228 0 0 0 136.922 44.379 A 17.652 17.652 0 0 0 137.573 44.589 A 16.54 16.54 0 0 0 140.488 45.199 A 14.045 14.045 0 0 0 142.068 45.29 A 14.759 14.759 0 0 0 145.383 44.9 A 17.513 17.513 0 0 0 146.545 44.589 A 18.788 18.788 0 0 0 150.5 42.855 A 21.285 21.285 0 0 0 151.057 42.521 A 10.509 10.509 0 0 0 154.393 39.187 A 12.446 12.446 0 0 0 154.663 38.745 Q 156.064 36.335 156.064 33.224 L 156.064 1.027 L 162.354 1.027 L 162.354 31.857 A 24.534 24.534 0 0 1 162.006 36.084 A 18.644 18.644 0 0 1 160.918 39.924 Q 159.642 43.052 157.786 45.007 A 11.466 11.466 0 0 1 157.312 45.478 A 18.902 18.902 0 0 1 152.627 48.675 A 21.321 21.321 0 0 1 152.271 48.845 Q 149.399 50.178 146.956 50.639 Q 144.512 51.1 142.051 51.1 A 26.868 26.868 0 0 1 137.616 50.722 A 29.858 29.858 0 0 1 137.146 50.639 A 18.904 18.904 0 0 1 134.553 49.96 Q 133.257 49.525 131.885 48.886 A 30.038 30.038 0 0 1 131.797 48.845 A 18.769 18.769 0 0 1 126.79 45.444 A 13.352 13.352 0 0 1 124.747 42.925 Q 123.987 41.731 123.36 40.276 A 22.932 22.932 0 0 1 123.184 39.855 A 19.14 19.14 0 0 1 121.958 35.145 A 24.811 24.811 0 0 1 121.748 31.857 Z M 62.07 50.041 L 55.781 50.041 L 55.781 1.027 L 71.333 1.027 A 18.681 18.681 0 0 1 77.87 2.138 A 16.805 16.805 0 0 1 83.33 5.471 A 14.329 14.329 0 0 1 88.233 15.815 A 17.858 17.858 0 0 1 88.252 16.647 A 15.14 15.14 0 0 1 87.045 22.725 A 14.561 14.561 0 0 1 85.432 25.534 A 15.511 15.511 0 0 1 77.896 31.071 L 88.97 50.041 L 82.681 50.041 L 72.29 32.199 L 62.07 32.199 L 62.07 50.041 Z M 6.289 50.041 L 0 50.041 L 20.234 1.027 L 26.523 1.027 L 46.963 50.041 L 40.674 50.041 L 33.804 33.669 L 13.022 33.669 L 6.289 50.041 Z M 373.208 50.041 L 366.919 50.041 L 387.153 1.027 L 393.442 1.027 L 413.882 50.041 L 407.593 50.041 L 400.723 33.669 L 379.941 33.669 L 373.208 50.041 Z M 235.737 25.534 A 25.225 25.225 0 0 0 242.881 43.632 A 23.517 23.517 0 0 0 251.537 49.459 A 26.122 26.122 0 0 0 260.945 51.1 A 31.56 31.56 0 0 0 261.285 51.099 A 24.94 24.94 0 0 0 279.351 43.598 A 29.907 29.907 0 0 0 279.583 43.363 A 24.62 24.62 0 0 0 286.836 25.534 A 29.6 29.6 0 0 0 286.834 25.205 A 24.567 24.567 0 0 0 279.351 7.487 A 25.263 25.263 0 0 0 271.578 2.114 A 26.259 26.259 0 0 0 260.945 0.002 A 31.469 31.469 0 0 0 260.224 0.01 A 23.825 23.825 0 0 0 242.881 7.453 A 25.166 25.166 0 0 0 235.737 25.534 Z M 247.341 11.179 A 20.447 20.447 0 0 0 242.042 24.615 A 26.377 26.377 0 0 0 242.026 25.534 Q 242.026 34.011 247.341 39.89 A 17.341 17.341 0 0 0 259.905 45.745 A 22.524 22.524 0 0 0 260.928 45.768 A 18.967 18.967 0 0 0 269.808 43.698 A 19.432 19.432 0 0 0 274.873 39.855 A 19.928 19.928 0 0 0 280.547 25.534 A 19.928 19.928 0 0 0 274.873 11.213 A 18.517 18.517 0 0 0 261.442 5.305 A 22.807 22.807 0 0 0 260.928 5.3 A 18.962 18.962 0 0 0 253.836 6.586 A 17.39 17.39 0 0 0 247.341 11.179 Z M 94.541 51.306 L 94.541 46.418 A 16.709 16.709 0 0 0 96.985 46.189 Q 99.975 45.666 101.355 43.982 A 4.764 4.764 0 0 0 101.65 43.581 A 7.702 7.702 0 0 0 102.51 41.705 Q 103.152 39.709 103.345 36.572 A 47.464 47.464 0 0 0 103.428 33.669 L 103.428 1.027 L 109.717 1.027 L 109.717 27.072 A 437.856 437.856 0 0 1 109.713 29.05 Q 109.701 31.695 109.655 33.636 A 144.982 144.982 0 0 1 109.648 33.908 A 69.111 69.111 0 0 1 109.307 39.257 Q 109.033 41.906 108.572 43.53 A 14.953 14.953 0 0 1 107.307 46.623 A 8.585 8.585 0 0 1 106.615 47.701 Q 106.08 48.405 105.461 48.862 A 8.147 8.147 0 0 1 104.452 49.491 Q 103.707 49.888 102.761 50.229 Q 101.104 50.827 99.189 51.032 A 41.55 41.55 0 0 1 97.639 51.167 Q 96.25 51.263 94.541 51.306 Z M 293.809 51.306 L 293.809 46.418 A 16.709 16.709 0 0 0 296.252 46.189 Q 299.242 45.666 300.623 43.982 A 4.764 4.764 0 0 0 300.918 43.581 A 7.702 7.702 0 0 0 301.777 41.705 Q 302.42 39.709 302.613 36.572 A 47.464 47.464 0 0 0 302.695 33.669 L 302.695 1.027 L 308.984 1.027 L 308.984 27.072 A 437.856 437.856 0 0 1 308.98 29.05 Q 308.968 31.695 308.923 33.636 A 144.982 144.982 0 0 1 308.916 33.908 A 69.111 69.111 0 0 1 308.574 39.257 Q 308.301 41.906 307.839 43.53 A 14.953 14.953 0 0 1 306.575 46.623 A 8.585 8.585 0 0 1 305.883 47.701 Q 305.348 48.405 304.729 48.862 A 8.147 8.147 0 0 1 303.72 49.491 Q 302.974 49.888 302.029 50.229 Q 300.371 50.827 298.457 51.032 A 41.55 41.55 0 0 1 296.906 51.167 Q 295.518 51.263 293.809 51.306 Z M 62.07 5.676 L 62.07 27.585 L 71.333 27.585 A 10.67 10.67 0 0 0 75.811 26.66 A 10.42 10.42 0 0 0 78.887 24.492 Q 81.963 21.398 81.963 16.647 A 12.024 12.024 0 0 0 81.342 12.71 A 10.285 10.285 0 0 0 78.887 8.786 A 10.192 10.192 0 0 0 71.481 5.677 A 12.793 12.793 0 0 0 71.333 5.676 L 62.07 5.676 Z M 23.379 7.487 L 14.971 29.055 L 31.924 29.055 L 23.379 7.487 Z M 390.298 7.487 L 381.89 29.055 L 398.843 29.055 L 390.298 7.487 Z" vector-effect="non-scaling-stroke"/></g></svg>