<svg width="134.9" height="72.401" viewBox="0 0 134.9 72.401" xmlns="http://www.w3.org/2000/svg"><g id="svgGroup" stroke-linecap="round" fill-rule="evenodd" font-size="9pt" stroke="#000" stroke-width="0.25mm" fill="#000" style="stroke:#000;stroke-width:0.25mm;fill:#000"><path d="M 64.8 68.701 L 56.1 72.201 L 48.3 52.201 L 15.9 52.201 L 8.1 72.001 L 0 68.701 L 27.4 1.201 L 37.8 1.201 L 64.8 68.701 Z M 94.208 71.643 A 36.51 36.51 0 0 0 101.8 72.401 A 38.35 38.35 0 0 0 106.962 72.064 A 30.074 30.074 0 0 0 115.7 69.551 Q 121.8 66.701 126.1 61.751 Q 130.4 56.801 132.65 50.201 Q 134.9 43.601 134.9 36.101 A 48.215 48.215 0 0 0 134.821 33.323 A 41.439 41.439 0 0 0 132.65 22.101 Q 130.4 15.601 126.1 10.601 Q 121.8 5.601 115.65 2.801 A 29.925 29.925 0 0 0 109.758 0.838 A 36.42 36.42 0 0 0 101.8 0.001 A 39.35 39.35 0 0 0 95.572 0.476 A 29.661 29.661 0 0 0 84.1 4.751 Q 76.7 9.501 72.75 17.651 A 37.989 37.989 0 0 0 69.915 25.764 A 46.182 46.182 0 0 0 68.8 36.101 A 48.913 48.913 0 0 0 68.835 37.961 A 42.769 42.769 0 0 0 71.05 50.201 A 39.376 39.376 0 0 0 71.489 51.423 A 34.353 34.353 0 0 0 77.55 61.751 Q 81.8 66.701 87.9 69.551 A 29.142 29.142 0 0 0 94.208 71.643 Z M 101.8 64.201 A 26.517 26.517 0 0 0 107.748 63.566 A 19.316 19.316 0 0 0 114.7 60.501 A 22.47 22.47 0 0 0 122.025 51.63 A 27.252 27.252 0 0 0 122.55 50.451 A 34.108 34.108 0 0 0 124.872 41.522 A 43.503 43.503 0 0 0 125.2 36.101 Q 125.2 30.701 123.6 25.701 A 29.735 29.735 0 0 0 119.46 17.374 A 28.121 28.121 0 0 0 119 16.751 Q 116 12.801 111.65 10.501 A 19.921 19.921 0 0 0 104.233 8.319 A 24.578 24.578 0 0 0 101.8 8.201 A 24.086 24.086 0 0 0 95.308 9.041 A 19.545 19.545 0 0 0 89.25 11.901 A 23.148 23.148 0 0 0 81.649 21.027 A 27.785 27.785 0 0 0 81.25 21.901 A 32.793 32.793 0 0 0 78.796 31.088 A 41.257 41.257 0 0 0 78.5 36.101 Q 78.5 41.501 80.05 46.551 A 29.379 29.379 0 0 0 84.231 55.096 A 27.923 27.923 0 0 0 84.6 55.601 Q 87.6 59.601 91.95 61.901 A 19.921 19.921 0 0 0 99.367 64.082 A 24.578 24.578 0 0 0 101.8 64.201 Z M 32.1 10.601 L 18.9 44.201 L 45.2 44.201 L 32.1 10.601 Z" vector-effect="non-scaling-stroke"/></g></svg>
